<svg width="4991" height="509" viewBox="0 0 4991 509" fill="none" xmlns="http://www.w3.org/2000/svg">
<path d="M1056.7 103.156V230.715H1280.09V320.271H1056.7V496.078H945V13.6006H1309.83V103.156H1056.7Z" fill="white"/>
<path d="M1693.17 496.408L1599.98 361.909H1594.36H1497.2V496.408H1385.51V13.6006H1594.36C1636.99 13.6006 1674.33 20.8708 1705.73 35.0807C1737.12 49.2907 1761.58 69.449 1778.43 95.8861C1795.28 121.993 1803.87 153.056 1803.87 189.077C1803.87 225.097 1795.28 255.83 1778.1 281.937C1760.91 308.044 1736.46 327.872 1704.74 341.421L1813.13 496.738H1693.17V496.408ZM1665.08 126.289C1647.57 111.748 1622.12 104.478 1588.41 104.478H1497.54V272.684H1588.41C1622.12 272.684 1647.57 265.414 1665.08 250.543C1682.59 235.672 1691.19 215.183 1691.19 188.416C1691.19 161.648 1682.59 140.829 1665.08 126.289Z" fill="white"/>
<path d="M2210.34 392.973H1986.29L1943.66 496.408H1829.32L2044.45 13.6006H2154.83L2370.62 496.408H2253.31L2210.34 392.973ZM2175.32 308.044L2098.65 123.315L2021.98 308.044H2175.32Z" fill="white"/>
<path d="M2740.08 247.569H2842.19V443.534C2816.08 463.362 2785.68 478.563 2751.31 489.138C2716.95 499.712 2682.25 505 2647.22 505C2596.99 505 2552.04 494.425 2512.06 472.945C2472.07 451.465 2440.68 422.054 2417.88 384.05C2395.07 346.047 2383.84 303.417 2383.84 255.5C2383.84 207.583 2395.07 164.953 2417.88 126.95C2440.68 88.9463 2472.07 59.2047 2512.72 38.055C2553.04 16.5749 2598.64 6 2649.2 6C2691.5 6 2729.83 13.2702 2764.2 27.4801C2798.57 41.6901 2827.65 62.5092 2851.11 89.6072L2779.4 155.7C2745.03 119.349 2703.4 101.173 2654.49 101.173C2623.75 101.173 2596.33 107.783 2572.53 120.34C2548.74 133.228 2529.9 151.404 2516.68 174.867C2503.47 198.33 2496.53 225.097 2496.53 255.5C2496.53 285.242 2503.14 312.009 2516.68 335.472C2529.9 358.935 2548.41 377.111 2572.2 390.329C2596 403.548 2622.76 409.827 2653.17 409.827C2685.22 409.827 2714.3 402.887 2740.08 389.007V247.569Z" fill="white"/>
<path d="M3384.81 496.408L3384.15 206.922L3242.05 445.517H3191.82L3050.38 213.201V496.738H2945.63V13.6006H3038.16L3218.92 313.662L3396.71 13.6006H3488.58L3489.9 496.408H3384.81Z" fill="white"/>
<path d="M3977.99 406.852V496.408H3604.24V13.6006H3969.07V103.156H3715.28V207.913H3939.33V295.156H3715.28V406.852H3977.99Z" fill="white"/>
<path d="M4509.38 13.6006V496.408H4417.51L4176.93 203.287V496.408H4066.56V13.6006H4159.09L4399.01 306.722V13.6006H4509.38Z" fill="white"/>
<path d="M4723.85 104.809H4569.52V13.9312H4990.2V104.809H4835.88V496.408H4724.18V104.809H4723.85Z" fill="white"/>
<path d="M508.5 34.5V0.700012H34.2H0.299988V34.5V508.9H34.2V34.5H508.5Z" fill="white"/>
<path d="M511.7 187.6V153.7H206.7H172.9V187.6V325.6V359.5H206.7H511.7V325.6H206.7V187.6H511.7Z" fill="white"/>
<path d="M511.7 475H172.9V508.9H511.7V475Z" fill="white"/>
</svg>
